<?xml version="1.0" encoding="iso-8859-1"?>
<!-- Generator: Adobe Illustrator 19.0.0, SVG Export Plug-In . SVG Version: 6.00 Build 0)  -->
<svg version="1.1" id="Layer_1" xmlns="http://www.w3.org/2000/svg" xmlns:xlink="http://www.w3.org/1999/xlink" x="0px" y="0px"
	 viewBox="0 0 363.007 363.007" style="enable-background:new 0 0 363.007 363.007;" xml:space="preserve">
<g id="XMLID_806_">
	<g>
		<g>
			<path d="M116.471,128.627H42.876v62.876h73.595V128.627z M96.471,171.503H62.876v-22.876h33.595V171.503z"/>
			<path d="M218.301,128.627h-73.595v62.876h73.595V128.627z M198.301,171.503h-33.595v-22.876h33.595V171.503z"/>
			<path d="M320.131,128.627h-73.595v62.876h73.595V128.627z M300.131,171.503h-33.595v-22.876h33.595V171.503z"/>
			<path d="M116.471,225.098H42.876v62.876h73.595V225.098z M96.471,267.974H62.876v-22.876h33.595V267.974z"/>
			<path d="M218.301,225.098h-73.595v62.876h73.595V225.098z M198.301,267.974h-33.595v-22.876h33.595V267.974z"/>
			<path d="M320.131,225.098h-73.595v62.876h73.595V225.098z M300.131,267.974h-33.595v-22.876h33.595V267.974z"/>
			<path d="M0,30.932v301.143h363.007V30.932H0z M343.007,312.074H20V105.751h323.007V312.074z M343.007,85.751H20V50.932h323.007
				V85.751z"/>
		</g>
	</g>
</g>
<g>
</g>
<g>
</g>
<g>
</g>
<g>
</g>
<g>
</g>
<g>
</g>
<g>
</g>
<g>
</g>
<g>
</g>
<g>
</g>
<g>
</g>
<g>
</g>
<g>
</g>
<g>
</g>
<g>
</g>
</svg>
